<?xml version="1.0" ?><svg viewBox="0 0 32 32" xmlns="http://www.w3.org/2000/svg"><title/><g data-name="Layer 32" id="Layer_32"><path d="M25.61,14.88,27,13.46a3,3,0,0,0,0-4.24L22.78,5a3.08,3.08,0,0,0-4.24,0L17.12,6.39a1,1,0,0,0,0,1.42l7.07,7.07A.93.93,0,0,0,25.61,14.88Z"/><path d="M6,27.18l8.33-1.26a1,1,0,0,0,.56-1.7L7.78,17.15a1,1,0,0,0-1.7.56L4.82,26a1,1,0,0,0,.28.86A1,1,0,0,0,6,27.18Z"/><path d="M27,13.46,14.85,25.64a1,1,0,0,1-.56.28L6,27.18A1,1,0,0,1,4.82,26l1.26-8.33a1,1,0,0,1,.28-.56L18.54,5a3.08,3.08,0,0,1,4.24,0L27,9.22A3,3,0,0,1,27,13.46Zm-1.41-2.82L21.36,6.39a1,1,0,0,0-1.41,0L8,18.34,7,25l6.66-1,12-11.94C26.08,11.57,26.17,11.25,25.61,10.64Z"/></g></svg>