<?xml version="1.0" ?><svg fill="none" height="24" viewBox="0 0 24 24" width="24" xmlns="http://www.w3.org/2000/svg"><path clip-rule="evenodd" d="M19 3C19.5523 3 20 3.44772 20 4V9C20 9.55228 19.5523 10 19 10H14C13.4477 10 13 9.55228 13 9C13 8.44772 13.4477 8 14 8H16.4738C14.6207 5.92318 11.5055 5.35728 8.99999 6.80385C6.13024 8.4607 5.14699 12.1302 6.80384 15C8.4607 17.8698 12.1302 18.853 15 17.1962C15.4783 16.92 16.0899 17.0839 16.366 17.5622C16.6422 18.0405 16.4783 18.6521 16 18.9282C12.1737 21.1373 7.28093 19.8263 5.07179 16C2.86265 12.1737 4.17365 7.28093 7.99999 5.07179C11.3565 3.13391 15.5336 3.90478 18 6.70614V4C18 3.44772 18.4477 3 19 3Z" fill="black" fill-rule="evenodd"/></svg>