<?xml version="1.0" ?><svg fill="none" height="24" viewBox="0 0 24 24" width="24" xmlns="http://www.w3.org/2000/svg"><path clip-rule="evenodd" d="M5 3C5.55228 3 6 3.44772 6 4V6.70615C8.46639 3.90478 12.6435 3.13391 16 5.0718C19.8263 7.28094 21.1373 12.1737 18.9282 16C16.7191 19.8263 11.8263 21.1373 8 18.9282C7.52171 18.6521 7.35783 18.0405 7.63397 17.5622C7.91012 17.0839 8.52171 16.92 9 17.1962C11.8698 18.853 15.5393 17.8698 17.1962 15C18.853 12.1302 17.8698 8.4607 15 6.80385C12.4945 5.35729 9.37931 5.92318 7.52624 8H10C10.5523 8 11 8.44772 11 9C11 9.55228 10.5523 10 10 10H5C4.44772 10 4 9.55228 4 9V4C4 3.44772 4.44772 3 5 3Z" fill="black" fill-rule="evenodd"/></svg>